<svg xmlns="http://www.w3.org/2000/svg" version="1.1" xmlns:xlink="http://www.w3.org/1999/xlink" xmlns:svgjs="http://svgjs.dev/svgjs" width="1500" height="1500" viewBox="0 0 1500 1500"><rect width="1500" height="1500" fill="#000000"></rect><g transform="matrix(0.6666666666666666,0,0,0.6666666666666666,249.39393939393938,438.58569500674764)"><svg viewBox="0 0 396 247" data-background-color="#705d56" preserveAspectRatio="xMidYMid meet" height="935" width="1500" xmlns="http://www.w3.org/2000/svg" xmlns:xlink="http://www.w3.org/1999/xlink"><g id="tight-bounds" transform="matrix(1,0,0,1,0.2400000000000091,-0.09999999999999432)"><svg viewBox="0 0 395.52 247.2" height="247.2" width="395.52"><g><svg></svg></g><g><svg viewBox="0 0 395.52 247.2" height="247.2" width="395.52"><mask id="1f8739d3-75ce-4352-bdef-d3d40357801a"><rect width="395.52" height="247.2" fill="white"></rect><g transform="matrix(1,0,0,1,2.842170943040401e-14,82.9540725704136)" id="clone"><svg viewBox="0 0 395.5199999999999 81.29185485917279" height="81.29185485917279" width="395.5199999999999"><g><svg viewBox="0 0 395.5199999999999 81.29185485917279" height="81.29185485917279" width="395.5199999999999"><g><svg viewBox="0 0 395.5199999999999 81.29185485917279" height="81.29185485917279" width="395.5199999999999"><g><svg viewBox="0 0 395.5199999999999 81.29185485917279" height="81.29185485917279" width="395.5199999999999"><g id="SvgjsG1639"><svg viewBox="0 0 395.5199999999999 81.29185485917279" height="81.29185485917279" width="395.5199999999999" id="SvgjsSvg1638"><g><svg viewBox="0 0 395.5199999999999 81.29185485917279" height="81.29185485917279" width="395.5199999999999"><g transform="matrix(1,0,0,1,0,0)"><svg width="395.5199999999999" viewBox="-1.95 -38 198.04 41.5" height="81.29185485917279" data-palette-color="#32292f"><path d="M1.05-34.05L1.05-35 16.65-35 16.65-34.05 13.75-34.05 13.75-18.55 23.7-18.55 23.7-34.05 20.75-34.05 20.75-35 36.4-35 36.4-34.05 33.45-34.05 33.45-0.95 36.4-0.95 36.4 0 20.75 0 20.75-0.95 23.7-0.95 23.7-17.25 13.75-17.25 13.75-0.95 16.65-0.95 16.65 0 1.05 0 1.05-0.95 4-0.95 4-34.05 1.05-34.05ZM38.7-34.05L38.7-35 53.95-35 53.95-34.05 51.2-34.05 51.2-0.95 53.95-0.95 53.95 0 38.7 0 38.7-0.95 41.45-0.95 41.45-34.05 38.7-34.05ZM71.6-17.7L71.6-17.7 68.95-17.7 68.95-0.95 72.2-0.95 72.2 0 55.95 0 55.95-0.95 59.2-0.95 59.2-34.05 55.95-34.05 55.95-35 71.05-35Q77.55-35 80.27-34.33 83-33.65 84.1-32.7L84.1-32.7Q86.5-30.75 86.5-26.5 86.5-22.25 84.4-20.43 82.3-18.6 78-18.25L78-18.25 78-18.1Q82.05-17.55 83.65-15.7 85.25-13.85 85.25-9.5L85.25-9.5 85.25-6.85Q85.25-4.25 85.52-3.35 85.8-2.45 86.7-2.45 87.59-2.45 88.12-3.28 88.65-4.1 89.09-6.75L89.09-6.75 89.95-6.65Q89.4-2.4 88.02-0.95 86.65 0.5 82.55 0.5 78.45 0.5 76.72-1.43 75-3.35 75-8.65L75-8.65 75-12.3Q75-15.1 74.27-16.4 73.55-17.7 71.6-17.7ZM70.6-34.05L68.95-34.05 68.95-18.65 70.55-18.65Q73.4-18.65 74.77-20.4 76.15-22.15 76.15-26.1L76.15-26.1 76.15-27.55Q76.15-31.5 74.82-32.77 73.5-34.05 70.6-34.05L70.6-34.05ZM92.04-33.9L92.04-35 118.04-35 118.54-25.1 117.64-25.1Q115.54-30.15 113.24-32.02 110.94-33.9 106.49-33.9L106.49-33.9 104.74-33.9 104.74-18.45 106.44-18.45Q108.79-18.45 110.39-20.23 111.99-22 112.64-25L112.64-25 113.39-25 113.39-10.2 112.54-10.2Q111.64-13.95 110.12-15.55 108.59-17.15 105.94-17.15L105.94-17.15 104.74-17.15 104.74-1.1 106.64-1.1Q111.24-1.1 114.47-3.85 117.69-6.6 118.89-10.9L118.89-10.9 119.89-10.9 119.49 0 92.04 0 92.04-1.1 94.99-1.1 94.99-33.9 92.04-33.9ZM143.59-9.25L149.59-35 162.94-35 162.94-34.05 160.19-34.05 160.19-0.95 162.94-0.95 162.94 0 147.69 0 147.69-0.95 150.44-0.95 150.44-32.2 150.24-32.2 142.74 0 136.49 0 127.69-32.35 127.49-32.35 127.49-0.95 130.24-0.95 130.24 0 123.44 0 123.44-0.95 126.19-0.95 126.19-34.05 123.44-34.05 123.44-35 136.94-35 143.59-9.25ZM165.24-33.9L165.24-35 191.24-35 191.74-25.1 190.84-25.1Q188.74-30.15 186.44-32.02 184.14-33.9 179.69-33.9L179.69-33.9 177.94-33.9 177.94-18.45 179.64-18.45Q181.99-18.45 183.59-20.23 185.19-22 185.84-25L185.84-25 186.59-25 186.59-10.2 185.74-10.2Q184.84-13.95 183.31-15.55 181.79-17.15 179.14-17.15L179.14-17.15 177.94-17.15 177.94-1.1 179.84-1.1Q184.44-1.1 187.66-3.85 190.89-6.6 192.09-10.9L192.09-10.9 193.09-10.9 192.69 0 165.24 0 165.24-1.1 168.19-1.1 168.19-33.9 165.24-33.9Z" opacity="1" transform="matrix(1,0,0,1,0,0)" fill="black" class="wordmark-text-0" id="SvgjsPath1637" stroke-width="5" stroke="black" stroke-linejoin="round"></path></svg></g></svg></g></svg></g></svg></g></svg></g></svg></g></svg></g></mask><g mask="url(#1f8739d3-75ce-4352-bdef-d3d40357801a)"><g><path d="M72.924 6.71v-6.71h110.181v6.71h-20.483v109.474h70.276v-109.474h-20.836v-6.71h110.534v6.71h-20.835v233.78h20.835v6.71h-110.534v-6.71h20.836v-115.124h-70.276v115.124h20.483v6.71h-110.181v-6.71h20.835v-233.78z" fill="#ffffff" fill-rule="nonzero" stroke="none" stroke-width="1" stroke-linecap="butt" stroke-linejoin="miter" stroke-miterlimit="10" stroke-dasharray="" stroke-dashoffset="0" font-family="none" font-weight="none" font-size="none" text-anchor="none" style="mix-blend-mode: normal" data-fill-palette-color="tertiary"></path></g></g><g transform="matrix(1,0,0,1,2.842170943040401e-14,82.9540725704136)"><svg viewBox="0 0 395.5199999999999 81.29185485917279" height="81.29185485917279" width="395.5199999999999"><g><svg viewBox="0 0 395.5199999999999 81.29185485917279" height="81.29185485917279" width="395.5199999999999"><g><svg viewBox="0 0 395.5199999999999 81.29185485917279" height="81.29185485917279" width="395.5199999999999"><g><svg viewBox="0 0 395.5199999999999 81.29185485917279" height="81.29185485917279" width="395.5199999999999"><g id="textblocktransform"><svg viewBox="0 0 395.5199999999999 81.29185485917279" height="81.29185485917279" width="395.5199999999999" id="textblock"><g><svg viewBox="0 0 395.5199999999999 81.29185485917279" height="81.29185485917279" width="395.5199999999999"><g transform="matrix(1,0,0,1,0,0)"><svg width="395.5199999999999" viewBox="-1.95 -38 198.04 41.5" height="81.29185485917279" data-palette-color="#32292f"><path d="M1.05-34.05L1.05-35 16.65-35 16.65-34.05 13.75-34.05 13.75-18.55 23.7-18.55 23.7-34.05 20.75-34.05 20.75-35 36.4-35 36.4-34.05 33.45-34.05 33.45-0.95 36.4-0.95 36.4 0 20.75 0 20.75-0.95 23.7-0.95 23.7-17.25 13.75-17.25 13.75-0.95 16.65-0.95 16.65 0 1.05 0 1.05-0.95 4-0.95 4-34.05 1.05-34.05ZM38.7-34.05L38.7-35 53.95-35 53.95-34.05 51.2-34.05 51.2-0.95 53.95-0.95 53.95 0 38.7 0 38.7-0.95 41.45-0.95 41.45-34.05 38.7-34.05ZM71.6-17.7L71.6-17.7 68.95-17.7 68.95-0.95 72.2-0.95 72.2 0 55.95 0 55.95-0.95 59.2-0.95 59.2-34.05 55.95-34.05 55.95-35 71.05-35Q77.55-35 80.27-34.33 83-33.65 84.1-32.7L84.1-32.7Q86.5-30.75 86.5-26.5 86.5-22.25 84.4-20.43 82.3-18.6 78-18.25L78-18.25 78-18.1Q82.05-17.55 83.65-15.7 85.25-13.85 85.25-9.5L85.25-9.5 85.25-6.85Q85.25-4.25 85.52-3.35 85.8-2.45 86.7-2.45 87.59-2.45 88.12-3.28 88.65-4.1 89.09-6.75L89.09-6.75 89.95-6.65Q89.4-2.4 88.02-0.95 86.65 0.5 82.55 0.5 78.45 0.5 76.72-1.43 75-3.35 75-8.65L75-8.65 75-12.3Q75-15.1 74.27-16.4 73.55-17.7 71.6-17.7ZM70.6-34.05L68.95-34.05 68.95-18.65 70.55-18.65Q73.4-18.65 74.77-20.4 76.15-22.15 76.15-26.1L76.15-26.1 76.15-27.55Q76.15-31.5 74.82-32.77 73.5-34.05 70.6-34.05L70.6-34.05ZM92.04-33.9L92.04-35 118.04-35 118.54-25.1 117.64-25.1Q115.54-30.15 113.24-32.02 110.94-33.9 106.49-33.9L106.49-33.9 104.74-33.9 104.74-18.45 106.44-18.45Q108.79-18.45 110.39-20.23 111.99-22 112.64-25L112.64-25 113.39-25 113.39-10.2 112.54-10.2Q111.64-13.95 110.12-15.55 108.59-17.15 105.94-17.15L105.94-17.15 104.74-17.15 104.74-1.1 106.64-1.1Q111.24-1.1 114.47-3.85 117.69-6.6 118.89-10.9L118.89-10.9 119.89-10.9 119.49 0 92.04 0 92.04-1.1 94.99-1.1 94.99-33.9 92.04-33.9ZM143.59-9.25L149.59-35 162.94-35 162.94-34.05 160.19-34.05 160.19-0.95 162.94-0.95 162.94 0 147.69 0 147.69-0.95 150.44-0.95 150.44-32.2 150.24-32.2 142.74 0 136.49 0 127.69-32.35 127.49-32.35 127.49-0.95 130.24-0.95 130.24 0 123.44 0 123.44-0.95 126.19-0.95 126.19-34.05 123.44-34.05 123.44-35 136.94-35 143.59-9.25ZM165.24-33.9L165.24-35 191.24-35 191.74-25.1 190.84-25.1Q188.74-30.15 186.44-32.02 184.14-33.9 179.69-33.9L179.69-33.9 177.94-33.9 177.94-18.45 179.64-18.45Q181.99-18.45 183.59-20.23 185.19-22 185.84-25L185.84-25 186.59-25 186.59-10.2 185.74-10.2Q184.84-13.95 183.31-15.55 181.79-17.15 179.14-17.15L179.14-17.15 177.94-17.15 177.94-1.1 179.84-1.1Q184.44-1.1 187.66-3.85 190.89-6.6 192.09-10.9L192.09-10.9 193.09-10.9 192.69 0 165.24 0 165.24-1.1 168.19-1.1 168.19-33.9 165.24-33.9Z" opacity="1" transform="matrix(1,0,0,1,0,0)" fill="#ffffff" class="wordmark-text-0" data-fill-palette-color="primary" id="text-0"></path></svg></g></svg></g></svg></g></svg></g></svg></g></svg></g></svg></g></svg></g><defs></defs></svg><rect width="395.52" height="247.2" fill="none" stroke="none" visibility="hidden"></rect></g></svg></g></svg>